<svg xmlns="http://www.w3.org/2000/svg" aria-hidden="true" style="position:absolute;width:0;height:0;overflow:hidden">
  <defs>
    <symbol id="icon-Frame" viewBox="0 0 32 32">
      <path
        d="M.013.934c0 .515.345.934.77.934h2.689c.979 0 1.801.71 2.11 1.839L9.657 18.53l-2.318 7.029c-.207.624.178 1.266.713 1.281h16.957c.425 0 .77-.418.77-.934s-.345-.934-.77-.934H9.187l1.807-5.477H25.01c.341 0 .63-.268.732-.64l4.815-13.138c.23-.631-.157-1.287-.701-1.31H7.394l-.353-1.284C6.524 1.238 5.113.001 3.475.001H.786c-.425 0-.77.418-.77.934zm11.012 16.692L7.904 6.274h20.768l-4.161 11.352H11.025zM9.634 27.871c.966 0 1.749.925 1.749 2.065 0 1.139-.783 2.064-1.749 2.064s-1.749-.925-1.749-2.064c0-1.14.783-2.065 1.749-2.065zM23.627 27.871c.966 0 1.749.925 1.749 2.065 0 1.139-.783 2.064-1.749 2.064s-1.749-.925-1.749-2.064c0-1.14.783-2.065 1.749-2.065z" />
    </symbol>
    <symbol id="icon-menu" viewBox="0 0 64 32">
      <path stroke-linecap="round" stroke-linejoin="round" stroke-width="5.333" d="M4 5.111h56M4 26.889h56" />
    </symbol>
    <symbol id="icon-youtube" viewBox="0 0 32 32">
      <path
        d="M23.847 6.476c-1.295-0.076-3.962-0.152-8-0.152h-0.533c-3.886 0-6.476 0.076-7.771 0.229-1.752 0.152-2.971 0.61-3.657 1.219-0.61 0.533-1.067 1.524-1.219 2.819-0.076 0.838-0.152 2.59-0.152 5.257v0.381c0 2.514 0.076 4.267 0.229 5.105 0.229 1.219 0.61 2.133 1.371 2.667 0.762 0.61 2.057 0.99 3.886 1.143 1.295 0.076 3.962 0.152 8 0.152h0.533c3.886 0 6.476-0.076 7.771-0.229 1.752-0.152 2.971-0.61 3.657-1.219 0.61-0.533 1.067-1.524 1.219-2.819 0.076-0.838 0.152-2.59 0.152-5.257v-0.381c0-2.514-0.076-4.267-0.229-5.105-0.229-1.219-0.61-2.133-1.371-2.667-0.762-0.61-2.057-0.99-3.886-1.143zM20.876 15.847l-8.381 5.029v-10.057l8.381 5.029z">
      </path>
    </symbol>
    <symbol id="icon-instagram" viewBox="0 0 32 32">
      <path
        d="M28.112 11.006c-0.015-1.023-0.204-2.038-0.567-2.995-0.635-1.634-1.928-2.926-3.565-3.559-0.946-0.355-1.947-0.546-2.96-0.568-1.302-0.058-1.715-0.074-5.022-0.074s-3.73 0-5.023 0.074c-1.011 0.022-2.012 0.212-2.958 0.568-1.637 0.633-2.931 1.925-3.565 3.559-0.356 0.945-0.548 1.944-0.567 2.953-0.058 1.302-0.076 1.714-0.076 5.015s0 3.723 0.076 5.015c0.020 1.011 0.211 2.009 0.567 2.956 0.635 1.633 1.928 2.925 3.566 3.558 0.942 0.368 1.943 0.576 2.958 0.608 1.304 0.058 1.717 0.076 5.023 0.076s3.73 0 5.023-0.076c1.011-0.020 2.012-0.211 2.96-0.566 1.637-0.634 2.93-1.926 3.565-3.559 0.356-0.946 0.547-1.944 0.567-2.956 0.058-1.3 0.076-1.713 0.076-5.015-0.003-3.301-0.003-3.72-0.078-5.013zM15.991 22.22c-3.458 0-6.259-2.797-6.259-6.249s2.801-6.249 6.259-6.249c3.455 0 6.259 2.797 6.259 6.249s-2.804 6.249-6.259 6.249zM22.499 10.949c-0.808 0-1.459-0.652-1.459-1.457s0.651-1.457 1.459-1.457c0.805 0 1.458 0.652 1.458 1.457s-0.653 1.457-1.458 1.457z">
      </path>
      <path
        d="M15.993 19.787c2.106 0 3.813-1.707 3.813-3.813s-1.707-3.813-3.813-3.813-3.813 1.707-3.813 3.813c0 2.106 1.707 3.813 3.813 3.813z">
      </path>
    </symbol>
    <symbol id="icon-facebook" viewBox="0 0 32 32">
      <path
        d="M19.352 5.181c0.229 0 0.457 0 0.914 0v3.429c-0.229 0-0.686 0-1.143 0s-0.914 0-1.143 0.229c-0.229 0.229-0.229 0.457-0.229 0.99 0 0.457 0 0.762 0 1.219h2.514v2.895h-2.514v12.571h-3.886v-12.648h-2.057v-2.895h2.057v-0.99c0-1.676 0.229-2.895 0.686-3.429 0.686-0.99 2.057-1.448 4.114-1.448 0.229 0.076 0.457 0.076 0.686 0.076z">
      </path>
    </symbol>

    <symbol id="icon-arrow-down" viewBox="0 0 32 32">
      <path stroke-width="3.2" d="m24 12-8 8-8-8" />
    </symbol>
    <symbol id="icon-arrow-narrow-left" viewBox="0 0 32 32">
      <path stroke-linecap="round" stroke-linejoin="round" stroke-width="2" d="M26.667 16H5.334M13.333 24l-8-8 8-8" />
    </symbol>
    <symbol id="icon-arrow-narrow-right" viewBox="0 0 32 32">
      <path stroke-linecap="round" stroke-linejoin="round" stroke-width="2" d="M5.333 16h21.333M18.667 8l8 8-8 8" />
    </symbol>
    <symbol id="icon-arrow-up" viewBox="0 0 32 32">
      <path stroke-width="3.2" d="m24 20-8-8-8 8" />
    </symbol>
  </defs>
</svg>